<svg width="36" height="40" viewBox="0 0 36 40" fill="none" xmlns="http://www.w3.org/2000/svg">
<path d="M9.58631 12.4671V14.5997H6.86133V9.74788H8.34754C10.4493 9.73874 11.2589 9.10046 11.7614 7.00586H24.3828C24.4255 7.19323 24.4591 7.36994 24.5065 7.54208C24.8975 8.97555 25.8552 9.71284 27.3582 9.74788C27.9906 9.75854 28.623 9.74788 29.2996 9.74788V14.6409H26.5915V12.5661C25.5482 12.5661 24.6058 12.5188 23.6633 12.5813C22.9653 12.6255 22.5025 13.0825 22.3268 13.7589C22.2481 14.0973 22.2127 14.4443 22.2214 14.7917C22.2153 20.6302 22.2153 26.4696 22.2214 32.3102C22.2111 32.6261 22.2388 32.9422 22.3039 33.2516C22.3771 33.6123 22.5725 33.937 22.8573 34.1711C23.1421 34.4052 23.499 34.5345 23.868 34.5373C24.4087 34.5632 24.951 34.5449 25.4917 34.5449H26.5136V26.9282L25.0869 26.8352V24.1694H29.2294C29.4295 24.8381 29.4753 36.1718 29.266 37.3281C28.7849 37.3281 28.2823 37.36 27.7829 37.3281C25.9499 37.1925 24.7402 38.1111 24.4225 40.003H11.7935C11.7309 39.7806 11.6682 39.5141 11.5796 39.2566C11.4142 38.7045 11.0755 38.2199 10.6132 37.8741C10.151 37.5283 9.58977 37.3396 9.01198 37.3357C8.31852 37.3128 7.62353 37.3357 6.87355 37.3357V24.1785H11.0954V26.8246L9.64129 26.9251V34.5083C10.6448 34.5083 11.627 34.5571 12.5923 34.4916C13.2782 34.4444 13.8143 33.8122 13.9273 33.0673C13.9592 32.7836 13.9689 32.4978 13.9564 32.2127C13.9564 26.4046 13.9564 20.5966 13.9564 14.7886C13.9564 13.0992 13.3637 12.4899 11.6789 12.4686C11.0175 12.4594 10.3561 12.4671 9.58631 12.4671ZM22.8034 37.3204C22.4979 37.1437 22.3986 37.0691 22.2856 37.0158C20.3564 36.1642 19.4445 34.6881 19.4735 32.5859C19.4995 30.6192 19.5117 28.6511 19.4735 26.6844C19.4399 25.1946 19.5239 23.7627 20.5855 22.6339C19.5285 20.7434 19.4995 20.7129 19.4903 19.6603C19.4766 17.7881 19.4613 15.9159 19.4903 14.0437C19.5209 12.2584 20.4389 10.997 21.9908 10.1805C22.2382 10.0495 22.5009 9.95201 22.8553 9.79358H13.3163C13.5745 9.91393 13.715 9.98095 13.8555 10.0434C15.7404 10.8721 16.6981 12.2964 16.6798 14.3667C16.6661 16.0804 16.6691 17.7942 16.6798 19.508C16.6913 20.4341 16.4096 21.3404 15.8748 22.0976C15.7755 22.2541 15.6848 22.4158 15.6029 22.5821C16.2048 23.3833 16.6615 24.2166 16.6645 25.2114C16.6752 27.8772 16.6966 30.5431 16.6554 33.2074C16.6551 33.815 16.5091 34.4136 16.2296 34.9535C15.9501 35.4933 15.5451 35.9586 15.0485 36.3105C14.5246 36.6974 13.9273 36.9868 13.3683 37.3159L22.8034 37.3204Z" fill="white"/>
<path d="M35.1879 18.4019C35.1893 18.9837 34.959 19.5422 34.5475 19.9546C34.136 20.3669 33.5771 20.5994 32.9937 20.6008C32.4104 20.6022 31.8504 20.3725 31.4369 19.9621C31.0234 19.5517 30.7903 18.9943 30.7889 18.4125C30.7856 17.8372 31.0098 17.2838 31.413 16.8723C31.8162 16.4608 32.3658 16.2244 32.9426 16.2144C33.2359 16.2036 33.5284 16.2524 33.8023 16.3579C34.0762 16.4633 34.3257 16.6232 34.5357 16.8278C34.7457 17.0324 34.9118 17.2774 35.0239 17.548C35.1361 17.8186 35.1918 18.1091 35.1879 18.4019V18.4019Z" fill="white"/>
<path d="M18.1769 -0.0011928C18.463 -0.00253247 18.7464 0.0541756 19.0098 0.165483C19.2732 0.27679 19.5112 0.440369 19.7092 0.646273C19.9072 0.852177 20.0612 1.0961 20.1617 1.36321C20.2623 1.63032 20.3073 1.91504 20.294 2.20004C20.2696 3.42786 19.211 4.43784 18.0028 4.37995C17.4285 4.34643 16.8889 4.09464 16.4951 3.67638C16.1013 3.25813 15.8832 2.70524 15.8858 2.13149C15.8995 0.856451 16.8526 -0.0316597 18.1769 -0.0011928Z" fill="white"/>
<path d="M2.18744 20.6001C0.948672 20.6154 0.0276172 19.7212 0.000123047 18.4781C-0.0273711 17.1772 0.875354 16.219 2.13856 16.2129C3.33303 16.2129 4.40988 17.2792 4.38544 18.4355C4.36863 19.009 4.13081 19.554 3.72145 19.9571C3.31209 20.3603 2.76267 20.5906 2.18744 20.6001V20.6001Z" fill="white"/>
</svg>
